<?xml version="1.0" standalone="no"?>
<!DOCTYPE svg PUBLIC "-//W3C//DTD SVG 20010904//EN"
 "http://www.w3.org/TR/2001/REC-SVG-20010904/DTD/svg10.dtd">
<svg version="1.0" xmlns="http://www.w3.org/2000/svg"
 width="821.000000pt" height="821.000000pt" viewBox="0 0 821.000000 821.000000"
 preserveAspectRatio="xMidYMid meet">
<metadata>
Created by potrace 1.11, written by Peter Selinger 2001-2013
</metadata>
<g transform="translate(0.000000,821.000000) scale(0.100000,-0.100000)"
fill="#000000" stroke="none">
<path d="M1427 7144 c-3 -3 -17 -7 -31 -8 -14 -2 -51 -18 -81 -37 -46 -28 -61
-44 -86 -94 -16 -33 -31 -71 -34 -85 -20 -97 -25 -257 -11 -340 23 -139 146
-552 210 -705 7 -16 23 -57 35 -90 13 -33 26 -69 31 -80 61 -150 80 -298 48
-374 -18 -44 -30 -61 -96 -133 -21 -22 -26 -41 -29 -90 -6 -94 -5 -199 1 -224
7 -27 -43 -81 -104 -113 -241 -125 -436 -321 -466 -465 -10 -46 -5 -125 10
-184 10 -35 14 -72 11 -82 -9 -29 15 -61 37 -49 12 6 18 6 18 -1 0 -5 -5 -10
-11 -10 -7 0 -9 -12 -5 -32 7 -35 7 -39 3 -78 -6 -69 -148 -205 -325 -311
-196 -118 -251 -146 -307 -160 -98 -24 -148 -52 -193 -111 -34 -44 -42 -63
-42 -96 0 -23 1 -42 3 -42 1 -1 20 -3 42 -6 22 -4 43 -10 46 -15 7 -12 43 -19
55 -11 18 13 32 49 24 62 -23 37 38 72 315 184 50 20 190 87 313 148 l223 112
50 -52 c28 -29 67 -61 87 -72 21 -11 44 -24 52 -29 26 -15 132 -59 173 -71 20
-6 27 -5 27 5 0 7 6 12 13 12 43 -5 247 37 257 53 3 4 20 15 39 24 18 10 102
87 187 172 85 85 159 154 166 154 16 0 87 -79 175 -194 42 -55 109 -134 149
-176 41 -42 88 -94 106 -116 18 -21 98 -105 178 -185 128 -129 166 -160 320
-262 96 -64 186 -127 200 -140 44 -40 163 -113 311 -189 192 -98 314 -145 520
-198 46 -12 93 -25 104 -30 11 -5 31 -11 45 -13 14 -3 50 -12 80 -20 30 -9 91
-22 135 -31 44 -8 109 -22 145 -30 75 -17 121 -25 170 -30 19 -2 63 -9 97 -15
57 -11 260 -8 428 5 33 2 166 6 295 9 129 2 253 6 275 9 77 9 244 7 265 -4 11
-6 20 -9 20 -7 0 8 63 -18 109 -43 103 -58 159 -101 163 -124 2 -10 15 -28 29
-39 25 -18 28 -18 60 -3 84 41 96 118 35 236 -46 90 -86 142 -185 236 -124
121 -304 211 -516 259 -185 43 -383 86 -435 95 -108 19 -321 88 -525 170 -44
17 -150 56 -235 85 -268 91 -302 109 -605 320 -33 23 -89 62 -123 86 -80 54
-210 165 -328 279 -51 48 -99 92 -107 96 -25 14 -138 126 -185 182 -74 88
-211 301 -223 345 -6 23 -19 59 -30 79 -10 20 -19 44 -19 52 0 17 122 121 165
141 17 7 43 25 59 39 16 14 36 27 45 27 63 5 74 3 85 -16 59 -105 152 -214
247 -291 65 -52 79 -98 48 -156 -14 -25 -3 -184 16 -253 51 -180 202 -306 473
-394 65 -21 140 -49 168 -61 27 -12 63 -28 79 -35 17 -7 66 -29 110 -48 86
-38 329 -118 410 -136 196 -42 295 -68 395 -103 110 -37 171 -55 215 -62 34
-5 113 -35 165 -61 27 -14 55 -25 61 -25 22 0 194 -81 219 -104 14 -12 66 -51
115 -86 50 -35 92 -67 95 -70 3 -4 24 -19 47 -33 118 -74 531 -467 723 -687
36 -41 87 -97 114 -125 26 -27 54 -58 60 -67 22 -32 211 -233 270 -288 32 -30
89 -84 126 -120 147 -142 191 -180 203 -180 7 0 37 -16 67 -36 30 -20 66 -42
80 -49 14 -7 52 -38 85 -68 66 -59 106 -83 154 -92 44 -8 64 6 101 72 25 45
31 64 27 94 -5 35 -96 230 -136 289 -34 52 -128 275 -167 400 -20 64 -53 148
-96 240 -16 36 -37 83 -46 105 -20 50 -133 269 -180 350 -19 33 -40 69 -46 80
-20 37 -185 280 -208 307 -13 15 -52 67 -88 115 -88 117 -213 255 -296 328
-38 33 -83 75 -101 92 -18 18 -58 50 -87 73 -30 22 -61 48 -68 58 -30 42 -258
205 -413 295 -11 7 -110 71 -220 143 -110 72 -229 148 -265 169 -36 21 -88 55
-115 74 -57 41 -69 48 -145 92 -30 17 -62 37 -70 44 -8 7 -80 51 -160 97 -138
81 -239 128 -305 143 -16 4 -61 18 -100 30 -38 13 -87 26 -107 29 -95 15 -197
50 -272 94 -256 151 -360 155 -526 21 -34 -27 -65 -47 -68 -44 -3 3 -25 -25
-49 -62 -70 -112 -80 -117 -180 -97 -61 12 -137 54 -195 108 -31 27 -34 36
-16 36 6 0 37 20 67 44 31 23 73 49 95 56 21 7 82 40 135 73 53 33 128 74 166
92 293 135 432 192 443 180 3 -3 14 2 24 12 16 14 96 48 138 58 8 2 15 4 15 5
0 5 107 11 187 11 53 -1 108 3 122 9 33 12 52 45 59 99 5 41 3 47 -31 79 -38
35 -284 201 -351 237 -66 35 -114 53 -225 85 -59 17 -124 40 -145 50 -51 27
-80 31 -217 34 -125 3 -154 -1 -403 -54 -74 -15 -140 -26 -147 -23 -7 3 -16
20 -20 39 -5 26 -13 36 -39 45 -23 9 -35 20 -38 38 -5 23 -10 26 -50 26 -36 0
-49 -5 -64 -25 -38 -50 -83 -171 -87 -234 -1 -33 -6 -39 -45 -57 -24 -10 -50
-19 -58 -19 -7 0 -33 -9 -55 -20 -23 -11 -47 -20 -54 -20 -21 0 -127 -51 -203
-99 -151 -92 -191 -111 -244 -115 -37 -3 -73 7 -87 25 -8 10 -66 38 -127 60
-32 12 -68 28 -80 36 -24 16 -79 12 -168 -11 -61 -16 -89 -12 -137 19 -43 28
-123 107 -156 153 -49 69 -208 421 -252 557 -24 75 -31 96 -48 135 -54 124
-81 264 -68 355 10 62 63 117 127 131 41 9 44 11 41 38 -2 16 2 32 8 36 9 6 5
13 -13 24 -23 16 -24 19 -12 42 7 14 11 33 8 43 -5 19 -57 54 -66 45z"/>
</g>
</svg>
